<svg
  xmlns="http://www.w3.org/2000/svg"
  width="64"
  height="64"
  viewBox="0 0 64 64"
  fill="none"
>
  <defs>
    <linearGradient id="grad" x1="0%" y1="0%" x2="100%" y2="100%">
      <stop offset="0%" stop-color="#a5b4fc" />
      <stop offset="100%" stop-color="#4f46e5" />
    </linearGradient>
    <linearGradient id="bg" x1="0%" y1="0%" x2="100%" y2="100%">
      <stop offset="0%" stop-color="#18181b" />
      <stop offset="100%" stop-color="#09090b" />
    </linearGradient>
  </defs>

  <rect width="64" height="64" rx="16" fill="url(#bg)" />
  <rect x="1" y="1" width="62" height="62" rx="15" fill="none" stroke="#27272a" stroke-width="2" />
  
  <path
    d="M15 14H25V39C25 46.18 20.746 50 13.5 50H11V42H13C14.973 42 15.958 40.9 15.958 38.7V22H15V14Z"
    fill="#f8fafc"
  />

  <path
    d="M31 14H42.5C49.833 14 53 18.105 53 24.25C53 30.395 49.833 34.5 42.5 34.5H39.5V50H31V14ZM39.5 22V26.5H42C43.992 26.5 45 25.718 45 24.25C45 22.782 43.992 22 42 22H39.5Z"
    fill="url(#grad)"
  />
</svg>
